<svg xmlns="http://www.w3.org/2000/svg" viewBox="0 0 100 100">
  <defs>
    <linearGradient id="g" x1="12" y1="88" x2="88" y2="12" gradientUnits="userSpaceOnUse">
      <stop stop-color="#8b46ff"/>
      <stop offset="1" stop-color="#ff1493"/>
    </linearGradient>
  </defs>
  <rect width="100" height="100" rx="20" fill="#050507"/>
  <path d="M14 52c0-22 15-38 37-38 12 0 22 4 30 12L68 39c-4-5-10-7-16-7-11 0-18 8-18 20s7 20 18 20c6 0 12-2 16-7l13 13c-8 8-18 12-30 12-22 0-37-16-37-38Z" fill="url(#g)"/>
  <path d="M48 21h23c14 0 23 8 23 20 0 8-5 15-12 18l15 26H77L64 62v23H48V21Zm16 14v15h6c5 0 8-3 8-8s-3-7-8-7h-6Z" fill="url(#g)"/>
  <path d="M15 74c27-2 50-13 68-31l-8-5 18-5v19l-6-7C68 67 44 79 15 82v-8Z" fill="#050507"/>
  <path d="M16 78c26-2 50-13 69-31" fill="none" stroke="url(#g)" stroke-width="3" stroke-linecap="round"/>
  <path d="M85 9c1.5 7 3.5 9 11 11-7.5 1.5-9.5 3.5-11 11-1.5-7.5-3.5-9.5-11-11 7.5-2 9.5-4 11-11Z" fill="#fff"/>
</svg>
